<svg xmlns="http://www.w3.org/2000/svg" width="280.001" height="189.941" viewBox="0 0 280.001 189.941">
  <g id="undraw_share_link_qtxe" transform="translate(-141.614 -0.041)">
    <rect id="Rectangle_247" data-name="Rectangle 247" width="86.376" height="0.717" transform="translate(335.238 143.21)" fill="#3f3d56"/>
    <path id="Path_204" data-name="Path 204" d="M771.744,379.606l2.509,13.261,5.376,1.434-1.434-15.77Z" transform="translate(-417.244 -242.836)" fill="#ffb8b8"/>
    <path id="Path_205" data-name="Path 205" d="M855.744,379.606l2.509,13.261,5.376,1.434-1.434-15.77Z" transform="translate(-471.138 -242.836)" fill="#ffb8b8"/>
    <path id="Path_206" data-name="Path 206" d="M892.139,584.229s-5.734-.358-5.734,1.434-2.867,7.885-2.867,7.885-2.15,7.168,3.584,6.451,9.319-7.168,9.319-7.168l-1.434-6.81Z" transform="translate(-531.833 -436.707)" fill="#2f2e41"/>
    <path id="Path_207" data-name="Path 207" d="M982,581.21s-3.825-2.459-3.552-.82.546,6.011,2.459,6.284,7.65,1.913,7.924,2.459,6.831,2.732,6.831-.82-4.1-6.284-4.1-6.284l-4.645-3.552s-3.005-.273-3.552,1.639S982,581.21,982,581.21Z" transform="translate(-593.042 -433.027)" fill="#2f2e41"/>
    <path id="Path_208" data-name="Path 208" d="M871.552,331.83s-6.093-8.96-8.243-6.093,5.376,8.243,5.376,8.243Z" transform="translate(-518.847 -270.516)" fill="#ffb8b8"/>
    <path id="Path_209" data-name="Path 209" d="M880.81,350.427c-.358-.358-6.81-6.451-6.81-6.451l4.659-3.226,5.376,5.376Z" transform="translate(-525.961 -280.511)" fill="#a9d1ff"/>
    <path id="Path_210" data-name="Path 210" d="M887.766,290.25s-4.659.358-4.3,4.3,3.4,17.024,3.4,17.024l1.792,3.584S895.292,294.551,887.766,290.25Z" transform="translate(-532.022 -248.111)" fill="#a9d1ff"/>
    <path id="Path_211" data-name="Path 211" d="M887.067,221.246l1.29,4.3h16.164l.466-4.659,1.4,4.659h2.079l.466-4.659,1.4,4.659h2.186l-2.056-4.952a39.924,39.924,0,0,1-2.167-7.327,13.8,13.8,0,0,0-13.518-11.018h0q-.286,0-.569.012c-9.06.367-14.862,9.855-11.386,18.229l2.1,5.056h1.72Z" transform="translate(-531.042 -191.651)" fill="#2f2e41"/>
    <path id="Path_212" data-name="Path 212" d="M880.833,359.75s-11.111,9.319-7.885,21.863,4.3,51.969,4.3,51.969l11.111-1.075v-49.46l15.411,29.389,2.509,21.146,12.544-2.15-5.734-25.805-11.028-32.894-1.158-9.49Z" transform="translate(-524.987 -292.702)" fill="#1f1f29"/>
    <circle id="Ellipse_97" data-name="Ellipse 97" cx="7.527" cy="7.527" r="7.527" transform="translate(356.026 14.9)" fill="#ffb8b8"/>
    <path id="Path_213" data-name="Path 213" d="M905,247.825s3.226,11.827,1.434,13.261,12.544-4.659,12.544-4.659-6.093-6.81-5.376-9.677Z" transform="translate(-545.928 -220.202)" fill="#ffb8b8"/>
    <path id="Path_214" data-name="Path 214" d="M909.256,264.1s-5.739,4.936-11.292,5.335c0,0-7.345,3.983-6.987,4.342s1.434,5.376,1.434,5.376,1.792,2.767,1.792,8.6c0,.717-2.509,10.752-2.509,10.752l21.146,2.867s5.734-18.637,6.093-25.089,2.509-13.261-.717-13.62S909.256,264.1,909.256,264.1Z" transform="translate(-536.923 -230.382)" fill="#a9d1ff"/>
    <path id="Path_215" data-name="Path 215" d="M956.659,265.93s2.509-2.15,3.943,2.867,7.168,20.788,5.734,24.013S956.3,310.373,956.3,310.373l-4.3-2.867,8.6-16.128-5.018-11.469Z" transform="translate(-576.083 -232.213)" fill="#a9d1ff"/>
    <path id="Path_216" data-name="Path 216" d="M942.252,381.75s-11.111,6.81-7.527,8.243S944.4,383.9,944.4,383.9Z" transform="translate(-564.543 -306.817)" fill="#ffb8b8"/>
    <path id="Path_217" data-name="Path 217" d="M774,38.5v7.527h2.867l1.075-3.226.269,3.226h7.975l1.075-3.226.269,3.226h3.315V38.5Z" transform="translate(-418.691 -24.675)" fill="#2f2e41"/>
    <path id="Path_218" data-name="Path 218" d="M894.081,310.25s-.717,7.168.358,8.6S894.081,310.25,894.081,310.25Z" transform="translate(-538.772 -260.943)" opacity="0.2"/>
    <rect id="Rectangle_248" data-name="Rectangle 248" width="151.965" height="0.717" transform="translate(141.614 174.391)" fill="#3f3d56"/>
    <path id="Path_219" data-name="Path 219" d="M506.947,420.86l-44.091,44.091a35.943,35.943,0,0,1-50.829,0c-.595-.595-1.168-1.208-1.713-1.839a34.7,34.7,0,0,1-2.505-3.226,35.4,35.4,0,0,1-5.677-13.619q-.306-1.6-.462-3.226-.167-1.736-.168-3.505a36.112,36.112,0,0,1,1.333-9.756q.457-1.64,1.072-3.226a35.864,35.864,0,0,1,8.122-12.433l19.236-19.236a5.375,5.375,0,0,1,7.6,7.6l-19.236,19.236a25.4,25.4,0,0,0-3.788,4.831,25.011,25.011,0,0,0-3.588,12.981,25.824,25.824,0,0,0,.24,3.505,24.516,24.516,0,0,0,.667,3.226,25.185,25.185,0,0,0,42.095,11.082l11.082-11.082,19.712-19.712,13.3-13.3a25.232,25.232,0,0,0,2.821-32.264,5.378,5.378,0,1,1,8.821-6.154A36,36,0,0,1,506.947,420.86Z" transform="translate(-222.658 -300.907)" fill="#146acc"/>
    <path id="Path_220" data-name="Path 220" d="M680.922,208.717q0,.4-.011.8a35.779,35.779,0,0,1-2.985,13.619,34.724,34.724,0,0,1-1.613,3.226,36.041,36.041,0,0,1-5.917,7.774L651.16,253.368a5.375,5.375,0,1,1-7.6-7.6l19.236-19.236c.057-.057.115-.115.168-.172a25.044,25.044,0,0,0,7.193-16.845c.011-.265.014-.53.014-.8q0-1.226-.115-2.43a25.164,25.164,0,0,0-7.261-15.383c-.383-.384-.774-.753-1.179-1.1a25.192,25.192,0,0,0-33.267,0c-.405.351-.8.72-1.179,1.1L583.077,235a25.223,25.223,0,0,0,0,35.626,5.375,5.375,0,0,1-7.6,7.6,35.982,35.982,0,0,1,0-50.829L619.567,183.3a35.979,35.979,0,0,1,55.987,6.5,34.513,34.513,0,0,1,1.781,3.226,35.635,35.635,0,0,1,3.505,13.261Q680.921,207.5,680.922,208.717Z" transform="translate(-327.641 -172.75)" fill="#146acc"/>
    <path id="Path_225" data-name="Path 225" d="M777.836,258.4a7.25,7.25,0,0,1-.143,1.432,7.183,7.183,0,1,1,.143-1.432Z" transform="translate(-455.02 -223.075)" fill="#146acc"/>
    <path id="Path_226" data-name="Path 226" d="M482.836,561.4a7.252,7.252,0,0,1-.143,1.432,7.183,7.183,0,1,1,.143-1.432Z" transform="translate(-265.618 -417.478)" fill="#146acc"/>
    <path id="Path_227" data-name="Path 227" d="M693.406,220.25h15.279c-.405.351-.8.72-1.179,1.1l-2.122,2.122h-15.2Z" transform="translate(-407.949 -203.199)" fill="#9ac2f0"/>
    <path id="Path_228" data-name="Path 228" d="M850.35,223.476H837.705a25.161,25.161,0,0,0-1.9-2.122c-.384-.383-.774-.753-1.179-1.1h13.938A34.539,34.539,0,0,1,850.35,223.476Z" transform="translate(-500.689 -203.199)" fill="#9ac2f0"/>
    <path id="Path_229" data-name="Path 229" d="M526.906,93.5h15.2l-3.226,3.226h-15.2Z" transform="translate(-257.915 -59.963)" fill="#9ac2f0"/>
    <path id="Path_230" data-name="Path 230" d="M777.611,266.25a7.231,7.231,0,0,1,.082,3.226h-14.05a7.232,7.232,0,0,1,.082-3.226Z" transform="translate(-455.02 -232.713)" fill="#9ac2f0"/>
    <path id="Path_231" data-name="Path 231" d="M869.047,268.68q0,.4-.011.8H858.281c.011-.265.014-.53.014-.8q0-1.226-.115-2.43h10.784Q869.045,267.46,869.047,268.68Z" transform="translate(-515.805 -232.713)" fill="#9ac2f0"/>
    <path id="Path_232" data-name="Path 232" d="M479.906,140.5h15.2l-3.226,3.226h-15.2Z" transform="translate(-227.738 -90.117)" fill="#9ac2f0"/>
    <path id="Path_233" data-name="Path 233" d="M853.354,313.25a34.7,34.7,0,0,1-1.613,3.226H838.39a24.89,24.89,0,0,0,2.685-3.226Z" transform="translate(-503.103 -262.867)" fill="#9ac2f0"/>
    <path id="Path_234" data-name="Path 234" d="M418.227,523.25a25.009,25.009,0,0,0-1.638,3.226H405.22q.457-1.64,1.072-3.226Z" transform="translate(-224.99 -397.602)" fill="#9ac2f0"/>
    <path id="Path_235" data-name="Path 235" d="M526.329,350.5l-3.226,3.226H507.9l3.226-3.226Z" transform="translate(-247.783 -224.852)" fill="#9ac2f0"/>
    <path id="Path_236" data-name="Path 236" d="M413.461,572.476H402.432q-.306-1.6-.462-3.226h10.824a24.519,24.519,0,0,0,.667,3.226Z" transform="translate(-222.902 -427.115)" fill="#9ac2f0"/>
    <path id="Path_237" data-name="Path 237" d="M482.836,571.042a7.254,7.254,0,0,1-.143,1.432l-14.05,0a7.231,7.231,0,0,1,.082-3.226H482.61A7.221,7.221,0,0,1,482.836,571.042Z" transform="translate(-265.618 -427.115)" fill="#9ac2f0"/>
    <path id="Path_238" data-name="Path 238" d="M480.329,396.5l-3.226,3.226H461.9l3.226-3.226Z" transform="translate(-218.249 -254.365)" fill="#9ac2f0"/>
    <path id="Path_239" data-name="Path 239" d="M439.83,619.476H421.605a34.718,34.718,0,0,1-2.505-3.226h14.781A24.936,24.936,0,0,0,439.83,619.476Z" transform="translate(-233.904 -457.27)" fill="#9ac2f0"/>
    <path id="Path_240" data-name="Path 240" d="M548.2,616.25l-3.226,3.226H526.62a24.936,24.936,0,0,0,5.95-3.226Z" transform="translate(-302.938 -457.27)" fill="#9ac2f0"/>
    <path id="Path_241" data-name="Path 241" d="M398.243,333.778c-2.74-4.63-8.161-4.846-8.161-4.846s-5.283-.676-8.671,6.376c-3.159,6.573-7.518,12.919-.7,14.457l1.231-3.832.762,4.117a26.658,26.658,0,0,0,2.916.05c7.3-.236,14.251.069,14.027-2.55C399.349,344.068,400.88,338.233,398.243,333.778Z" transform="translate(-206.938 -272.918)" fill="#2f2e41"/>
    <path id="Path_242" data-name="Path 242" d="M260.5,453.717l.358,9.319h6.451L266.951,453Z" transform="translate(-88.937 -290.615)" fill="#fbbebe"/>
    <path id="Path_243" data-name="Path 243" d="M390.186,441.825l-.652,2.168-8.451,28.074-.932,3.089.717,32.973-8.96,1.075s-.262-3.462-.645-8.573c-.771-10.121-2.032-26.719-2.763-35.751-.269-3.34-.462-5.645-.534-6.211-.358-2.867,4.3-17.2,4.3-17.2l9.319-.717Z" transform="translate(-201.061 -344.671)" fill="#2f2e41"/>
    <path id="Path_244" data-name="Path 244" d="M362.523,648.035s-2.509-2.867-2.867-.717S355,657.712,355,657.712s-12.544,8.243-1.792,8.96c0,0,5.376-.717,7.168-3.584,0,0,2.867-1.792,3.584-1.792s5.018-1.434,4.3-3.584-.358-10.035-.358-10.035Z" transform="translate(-188.8 -476.69)" fill="#2f2e41"/>
    <path id="Path_245" data-name="Path 245" d="M265.5,424.584l3.226,6.093,5.018-2.509L270.518,421Z" transform="translate(-92.148 -270.084)" fill="#fbbebe"/>
    <path id="Path_246" data-name="Path 246" d="M372.9,505.348a48.364,48.364,0,0,1-3.4-14.874c5.19-5.8,11.469-12.186,11.469-12.186l7.527-.358,2.33-.179c.545,5.448-4.064,12.465-8.745,18.057A100.05,100.05,0,0,1,372.9,505.348Z" transform="translate(-202.059 -368.41)" opacity="0.2"/>
    <path id="Path_247" data-name="Path 247" d="M369.156,456.294s-22.938,20.071-19.712,28.314,12.186,18.279,12.186,18.279l6.922-4.132-6.564-15.222s2.752-2.44,6.1-6.056c5.451-5.884,12.485-14.882,11.819-21.541l-.358-12.186-6.093.717Z" transform="translate(-188.985 -346.595)" fill="#2f2e41"/>
    <path id="Path_248" data-name="Path 248" d="M395.088,613.371s-2.509,0-2.15,2.151,1.075,5.734,1.075,5.734-2.867,16.845,3.942,12.9,5.018-14.336,5.018-14.336,2.509-6.451-.717-7.168-4.3-1.434-4.659-1.075S395.088,613.371,395.088,613.371Z" transform="translate(-217.08 -454.212)" fill="#2f2e41"/>
    <circle id="Ellipse_98" data-name="Ellipse 98" cx="6.451" cy="6.451" r="6.451" transform="translate(176.572 58.447)" fill="#fbbebe"/>
    <path id="Path_249" data-name="Path 249" d="M403.434,360.75s2.867,7.527,1.792,7.885a16.107,16.107,0,0,0-3.226,2.15l3.584,3.226,9.319-5.018s-4.3-5.734-3.942-8.243Z" transform="translate(-222.922 -293.343)" fill="#fbbebe"/>
    <path id="Path_250" data-name="Path 250" d="M397.22,379.75s-7.5,3.7-10.2,1.311c0,0-4.494-.236-5.21,2.273s.717,4.659-1.075,5.376-3.046,2.688-1.971,5.914.9,3.763-.538,4.839-2.867,3.226-2.867,3.942-1.434.717-.717,1.434-.717,0,.717.717,5.376-5.735,8.243-2.509,11.827,8.6,12.544,5.376,2.867-11.111,2.867-11.111,7.527-13.978,5.376-15.412S397.22,379.75,397.22,379.75Z" transform="translate(-205.234 -305.533)" fill="#e4e4e4"/>
    <path id="Path_251" data-name="Path 251" d="M417.894,449.58s-3.942-.717-5.018,1.792-7.168,8.243-3.226,8.6,6.81-6.093,6.81-6.093l3.943-.717Z" transform="translate(-226.991 -350.275)" fill="#fbbebe"/>
    <path id="Path_252" data-name="Path 252" d="M437.659,385.75l4.687.261a10.529,10.529,0,0,1,2.481,4.4c.358,2.15,7.168,18.279,2.867,20.071s-13.62,2.867-13.62,2.867L433,408.33l6.093-2.15-4.3-8.96Z" transform="translate(-242.827 -309.383)" fill="#e4e4e4"/>
    <path id="Path_253" data-name="Path 253" d="M264.075,370.951l5.9,14.739L263,370.951l6.093-6.451Z" transform="translate(-90.542 -233.834)" opacity="0.2"/>
    <path id="Path_254" data-name="Path 254" d="M256.143,427.766l2.458,3.13h-1.792Z" transform="translate(-86.139 -274.425)" opacity="0.2"/>
    <circle id="Ellipse_99" data-name="Ellipse 99" cx="3.92" cy="3.92" r="3.92" transform="translate(179.881 52.118)" fill="#2f2e41"/>
    <path id="Path_255" data-name="Path 255" d="M401.609,319.134a3.92,3.92,0,0,1,3.507-3.9,3.967,3.967,0,0,0-.412-.022,3.92,3.92,0,1,0,.413,7.818A3.92,3.92,0,0,1,401.609,319.134Z" transform="translate(-222.138 -264.128)" fill="#2f2e41"/>
    <path id="Path_256" data-name="Path 256" d="M286.647,163.467l-5.356-2.805-7.4,1.148-1.53,6.758,3.81-.147,1.064-2.483v2.442l1.758-.068,1.02-3.953.638,4.208,6.248-.128Z" transform="translate(-96.557 -103.053)" fill="#2f2e41"/>
  </g>
</svg>
